Results
version=1
nRows=17
nColumns=24
inDegrees=yes
endheader
time	pelvis_tilt	pelvis_list	pelvis_rotation	pelvis_tx	pelvis_ty	pelvis_tz	hip_flexion_r	hip_adduction_r	hip_rotation_r	knee_angle_r	ankle_angle_r	subtalar_angle_r	mtp_angle_r	hip_flexion_l	hip_adduction_l	hip_rotation_l	knee_angle_l	ankle_angle_l	subtalar_angle_l	mtp_angle_l	lumbar_extension	lumbar_bending	lumbar_rotation
      0.67100000	     -5.00952101	      2.88015311	      7.40055426	      0.00070390	      0.97813726	      0.23663853	     37.55993978	     -6.14857873	     -7.95903051	     -7.32821050	     10.39625812	     -0.05612912	     13.86739841	    -15.75119714	      4.36366848	      8.10948909	     -3.98515698	     16.24449351	     -0.10152591	      1.64222989	      2.73840542	     -6.53839942	     -5.80703795
      0.67516667	     -5.01948467	      2.72703004	      7.62599669	      0.00699126	      0.97743635	      0.23709763	     37.51176625	     -6.05361823	     -7.60555488	     -7.93027956	     10.36947119	     -0.67981504	     13.87368724	    -15.95645318	      4.07993892	      8.24104051	     -4.24965575	     16.19570195	     -0.13368913	      1.65607019	      2.80501781	     -6.40264666	     -5.98662047
      0.67933333	     -5.01913739	      2.56150752	      7.85430100	      0.01333720	      0.97679657	      0.23756994	     37.43047259	     -5.93966382	     -7.28921562	     -8.49641534	     10.25959898	     -1.32650760	     13.88593547	    -16.16272647	      3.77762439	      8.36346389	     -4.52977888	     16.09974298	     -0.18738502	      1.68139929	      2.87883246	     -6.25074605	     -6.17873304
      0.68350000	     -5.02468987	      2.38139872	      8.07248389	      0.01974838	      0.97618161	      0.23807498	     37.34480332	     -5.80047768	     -7.00621209	     -9.04310716	     10.09268504	     -1.94038556	     13.90498702	    -16.36109857	      3.45940307	      8.48594279	     -4.80949297	     15.98008936	     -0.24363991	      1.71691661	      2.95769705	     -6.08949457	     -6.35235195
      0.68766667	     -5.02339246	      2.19923023	      8.27931499	      0.02620569	      0.97561004	      0.23862340	     37.24238313	     -5.64409530	     -6.74027288	     -9.56450784	      9.85031622	     -2.55619612	     13.93355120	    -16.56018779	      3.13666505	      8.59098863	     -5.09977934	     15.82854864	     -0.30513306	      1.76641246	      3.03855199	     -5.92700061	     -6.51451211
      0.69183333	     -5.02425568	      2.00741826	      8.47644548	      0.03272109	      0.97507518	      0.23919509	     37.13123790	     -5.46831615	     -6.50540365	    -10.05618056	      9.53813223	     -3.15112025	     13.97403430	    -16.75123297	      2.80405282	      8.68809270	     -5.39892956	     15.65286809	     -0.36835459	      1.83188495	      3.13156270	     -5.75225571	     -6.65918009
      0.69600000	     -5.03197333	      1.81413868	      8.66094400	      0.03928197	      0.97457021	      0.23981421	     37.02032107	     -5.27705213	     -6.27867946	    -10.52065191	      9.15854404	     -3.75312919	     14.03211188	    -16.92767171	      2.47023464	      8.77215391	     -5.71082215	     15.45178864	     -0.42843376	      1.92122493	      3.24482381	     -5.58331772	     -6.78970163
      0.70016667	     -5.03287622	      1.61066376	      8.83401395	      0.04590172	      0.97411793	      0.24046277	     36.89422142	     -5.06381918	     -6.08054620	    -10.95689236	      8.71304488	     -4.35595779	     14.10910340	    -17.10329349	      2.12455384	      8.83085036	     -6.03373902	     15.21586771	     -0.48972884	      2.03694784	      3.35933402	     -5.40138001	     -6.89951916
      0.70433333	     -5.04677980	      1.38632159	      8.98294787	      0.05259996	      0.97367933	      0.24115536	     36.78222193	     -4.81686971	     -5.91146519	    -11.37474873	      8.18501282	     -4.89923940	     14.18580958	    -17.27114158	      1.76169079	      8.88748295	     -6.34097178	     14.95881873	     -0.52809248	      2.15283678	      3.50782841	     -5.17677570	     -6.98328034
      0.70850000	     -5.04373541	      1.17427086	      9.12341761	      0.05931194	      0.97331148	      0.24190026	     36.64628453	     -4.56515808	     -5.73156541	    -11.76375324	      7.59256613	     -5.52368637	     14.29959406	    -17.43364119	      1.40783906	      8.89715124	     -6.69274041	     14.64772481	     -0.57596567	      2.32362192	      3.63690941	     -4.99815709	     -7.05167535
      0.71266667	     -5.07052279	      0.93553430	      9.23644393	      0.06610909	      0.97293423	      0.24267627	     36.55223254	     -4.27938637	     -5.58892894	    -12.15696319	      6.95462432	     -6.02701769	     14.39403796	    -17.57371215	      1.03663312	      8.91638614	     -7.02133868	     14.32745126	     -0.60187843	      2.47281805	      3.82635882	     -4.74999617	     -7.09302527
      0.71683333	     -5.07566826	      0.71320836	      9.33626282	      0.07290914	      0.97263849	      0.24352724	     36.43225631	     -3.98813508	     -5.42000421	    -12.52642738	      6.23975341	     -6.64755625	     14.53279714	    -17.70955858	      0.67861556	      8.87296074	     -7.40253869	     13.94719144	     -0.64481218	      2.69781660	      3.97881001	     -4.57229477	     -7.11568266
      0.72100000	     -5.11025087	      0.47723491	      9.38873957	      0.07978006	      0.97231855	      0.24445474	     36.35991626	     -3.66025093	     -5.22736959	    -12.90961973	      5.50229739	     -7.17151490	     16.07283917	    -17.80666883	      0.31884561	      8.73013177	     -7.79236390	     13.49027422	     -0.56819087	      5.22114981	      4.19129439	     -4.34231975	     -7.02844274
      0.72516667	     -5.11503380	      0.22967179	      9.45769245	      0.08667044	      0.97211349	      0.24535487	     36.26043386	     -3.33219225	     -5.12661398	    -13.29976273	      4.74414480	     -7.68703724	     16.07920030	    -17.93817379	     -0.05611340	      8.72982144	     -8.17565115	     13.06690537	     -0.67161552	      5.27974670	      4.36751190	     -4.10754413	     -7.09107857
      0.72933333	     -5.13467815	     -0.01685419	      9.48365635	      0.09360006	      0.97191492	      0.24635298	     36.18900340	     -2.97482330	     -4.95500307	    -13.70569535	      3.99871443	     -8.20470561	     16.10061467	    -18.03843535	     -0.41925452	      8.64448225	     -8.59061354	     12.59213638	     -0.70940136	      5.38171836	      4.56691484	     -3.87575109	     -7.05193214
      0.73350000	     -5.16832609	     -0.27496203	      9.48306597	      0.10056776	      0.97173658	      0.24739919	     36.14946518	     -2.59431267	     -4.78151474	    -14.14068992	      3.28993992	     -8.65130795	     16.12441866	    -18.11582531	     -0.78485145	      8.54729053	     -9.01963653	     12.08627339	     -0.72417375	      5.49891840	      4.78584611	     -3.60753123	     -6.99674397
      0.73766667	     -5.17331267	     -0.51781292	      9.46357129	      0.10753033	      0.97165127	      0.24850081	     36.08854051	     -2.20947182	     -4.58946722	    -14.59139888	      2.57385836	     -9.16367528	     16.16021428	    -18.19479244	     -1.13386382	      8.38873746	     -9.50555810	     11.54687110	     -0.74855834	      5.68458565	      4.98308382	     -3.39178878	     -6.91045221
